<svg width="16" height="13" viewBox="0 0 16 13" fill="none" xmlns="http://www.w3.org/2000/svg">
<path d="M14.5 0.988403H1.50001C0.672854 0.988403 0 1.66103 0 2.4879V11.4848C0 12.3117 0.672854 12.9843 1.50001 12.9843H14.5C15.3271 12.9843 16 12.3117 16 11.4848V2.4879C16 1.66103 15.3271 0.988403 14.5 0.988403ZM14.5 1.98806C14.5679 1.98806 14.6325 2.00215 14.6916 2.02675L8 7.82445L1.30833 2.02675C1.36742 2.00218 1.43204 1.98806 1.49998 1.98806H14.5ZM14.5 11.9846H1.50001C1.22414 11.9846 0.999996 11.7606 0.999996 11.4848V3.0829L7.67236 8.86363C7.76661 8.94513 7.8833 8.98566 8 8.98566C8.1167 8.98566 8.23339 8.94516 8.32764 8.86363L15 3.0829V11.4848C15 11.7606 14.7759 11.9846 14.5 11.9846Z" fill="#757575"/>
</svg>
